%TF.GenerationSoftware,KiCad,Pcbnew,(5.1.10)-1*%
%TF.CreationDate,2021-05-28T12:23:57-05:00*%
%TF.ProjectId,ldo-power-board,6c646f2d-706f-4776-9572-2d626f617264,v01*%
%TF.SameCoordinates,Original*%
%TF.FileFunction,Copper,L1,Top*%
%TF.FilePolarity,Positive*%
%FSLAX46Y46*%
G04 Gerber Fmt 4.6, Leading zero omitted, Abs format (unit mm)*
G04 Created by KiCad (PCBNEW (5.1.10)-1) date 2021-05-28 12:23:57*
%MOMM*%
%LPD*%
G01*
G04 APERTURE LIST*
%TA.AperFunction,SMDPad,CuDef*%
%ADD10R,1.854200X1.854200*%
%TD*%
%TA.AperFunction,SMDPad,CuDef*%
%ADD11R,0.254000X0.812800*%
%TD*%
%TA.AperFunction,SMDPad,CuDef*%
%ADD12R,0.812800X0.254000*%
%TD*%
%TA.AperFunction,ComponentPad*%
%ADD13O,1.700000X1.700000*%
%TD*%
%TA.AperFunction,ComponentPad*%
%ADD14R,1.700000X1.700000*%
%TD*%
%TA.AperFunction,SMDPad,CuDef*%
%ADD15C,1.000000*%
%TD*%
%TA.AperFunction,ViaPad*%
%ADD16C,0.508000*%
%TD*%
%TA.AperFunction,Conductor*%
%ADD17C,0.254000*%
%TD*%
%TA.AperFunction,Conductor*%
%ADD18C,0.381000*%
%TD*%
%TA.AperFunction,Conductor*%
%ADD19C,0.100000*%
%TD*%
G04 APERTURE END LIST*
D10*
%TO.P,U1,17*%
%TO.N,GND*%
X142240000Y-101600000D03*
D11*
%TO.P,U1,16*%
%TO.N,/VIN*%
X141489999Y-100152200D03*
%TO.P,U1,15*%
X141990000Y-100152200D03*
%TO.P,U1,14*%
%TO.N,Net-(U1-Pad14)*%
X142490000Y-100152200D03*
%TO.P,U1,13*%
%TO.N,Net-(U1-Pad13)*%
X142990001Y-100152200D03*
D12*
%TO.P,U1,12*%
%TO.N,GND*%
X143687800Y-100849999D03*
%TO.P,U1,11*%
%TO.N,Net-(U1-Pad11)*%
X143687800Y-101350000D03*
%TO.P,U1,10*%
%TO.N,/VIN*%
X143687800Y-101850000D03*
%TO.P,U1,9*%
%TO.N,Net-(U1-Pad9)*%
X143687800Y-102350001D03*
D11*
%TO.P,U1,8*%
%TO.N,/VOUT3*%
X142990001Y-103047800D03*
%TO.P,U1,7*%
%TO.N,Net-(U1-Pad7)*%
X142490000Y-103047800D03*
%TO.P,U1,6*%
%TO.N,/VOUT2*%
X141990000Y-103047800D03*
%TO.P,U1,5*%
%TO.N,/VOUT1*%
X141489999Y-103047800D03*
D12*
%TO.P,U1,4*%
%TO.N,Net-(U1-Pad4)*%
X140792200Y-102350001D03*
%TO.P,U1,3*%
%TO.N,/VIN*%
X140792200Y-101850000D03*
%TO.P,U1,2*%
X140792200Y-101350000D03*
%TO.P,U1,1*%
X140792200Y-100849999D03*
%TD*%
D13*
%TO.P,J2,4*%
%TO.N,GND*%
X153670000Y-105410000D03*
%TO.P,J2,3*%
%TO.N,/VOUT3*%
X153670000Y-102870000D03*
%TO.P,J2,2*%
%TO.N,/VOUT2*%
X153670000Y-100330000D03*
D14*
%TO.P,J2,1*%
%TO.N,/VOUT1*%
X153670000Y-97790000D03*
%TD*%
D13*
%TO.P,J1,2*%
%TO.N,GND*%
X130810000Y-102870000D03*
D14*
%TO.P,J1,1*%
%TO.N,/VIN*%
X130810000Y-100330000D03*
%TD*%
D15*
%TO.P,FID2,*%
%TO.N,*%
X149860000Y-107950000D03*
%TD*%
%TO.P,FID1,*%
%TO.N,*%
X134620000Y-95250000D03*
%TD*%
%TO.P,C6,2*%
%TO.N,GND*%
%TA.AperFunction,SMDPad,CuDef*%
G36*
G01*
X146287500Y-101275000D02*
X145812500Y-101275000D01*
G75*
G02*
X145575000Y-101037500I0J237500D01*
G01*
X145575000Y-100437500D01*
G75*
G02*
X145812500Y-100200000I237500J0D01*
G01*
X146287500Y-100200000D01*
G75*
G02*
X146525000Y-100437500I0J-237500D01*
G01*
X146525000Y-101037500D01*
G75*
G02*
X146287500Y-101275000I-237500J0D01*
G01*
G37*
%TD.AperFunction*%
%TO.P,C6,1*%
%TO.N,/VIN*%
%TA.AperFunction,SMDPad,CuDef*%
G36*
G01*
X146287500Y-103000000D02*
X145812500Y-103000000D01*
G75*
G02*
X145575000Y-102762500I0J237500D01*
G01*
X145575000Y-102162500D01*
G75*
G02*
X145812500Y-101925000I237500J0D01*
G01*
X146287500Y-101925000D01*
G75*
G02*
X146525000Y-102162500I0J-237500D01*
G01*
X146525000Y-102762500D01*
G75*
G02*
X146287500Y-103000000I-237500J0D01*
G01*
G37*
%TD.AperFunction*%
%TD*%
%TO.P,C5,2*%
%TO.N,GND*%
%TA.AperFunction,SMDPad,CuDef*%
G36*
G01*
X137938500Y-103703000D02*
X138413500Y-103703000D01*
G75*
G02*
X138651000Y-103940500I0J-237500D01*
G01*
X138651000Y-104540500D01*
G75*
G02*
X138413500Y-104778000I-237500J0D01*
G01*
X137938500Y-104778000D01*
G75*
G02*
X137701000Y-104540500I0J237500D01*
G01*
X137701000Y-103940500D01*
G75*
G02*
X137938500Y-103703000I237500J0D01*
G01*
G37*
%TD.AperFunction*%
%TO.P,C5,1*%
%TO.N,/VIN*%
%TA.AperFunction,SMDPad,CuDef*%
G36*
G01*
X137938500Y-101978000D02*
X138413500Y-101978000D01*
G75*
G02*
X138651000Y-102215500I0J-237500D01*
G01*
X138651000Y-102815500D01*
G75*
G02*
X138413500Y-103053000I-237500J0D01*
G01*
X137938500Y-103053000D01*
G75*
G02*
X137701000Y-102815500I0J237500D01*
G01*
X137701000Y-102215500D01*
G75*
G02*
X137938500Y-101978000I237500J0D01*
G01*
G37*
%TD.AperFunction*%
%TD*%
%TO.P,C4,2*%
%TO.N,GND*%
%TA.AperFunction,SMDPad,CuDef*%
G36*
G01*
X138413500Y-99497000D02*
X137938500Y-99497000D01*
G75*
G02*
X137701000Y-99259500I0J237500D01*
G01*
X137701000Y-98659500D01*
G75*
G02*
X137938500Y-98422000I237500J0D01*
G01*
X138413500Y-98422000D01*
G75*
G02*
X138651000Y-98659500I0J-237500D01*
G01*
X138651000Y-99259500D01*
G75*
G02*
X138413500Y-99497000I-237500J0D01*
G01*
G37*
%TD.AperFunction*%
%TO.P,C4,1*%
%TO.N,/VIN*%
%TA.AperFunction,SMDPad,CuDef*%
G36*
G01*
X138413500Y-101222000D02*
X137938500Y-101222000D01*
G75*
G02*
X137701000Y-100984500I0J237500D01*
G01*
X137701000Y-100384500D01*
G75*
G02*
X137938500Y-100147000I237500J0D01*
G01*
X138413500Y-100147000D01*
G75*
G02*
X138651000Y-100384500I0J-237500D01*
G01*
X138651000Y-100984500D01*
G75*
G02*
X138413500Y-101222000I-237500J0D01*
G01*
G37*
%TD.AperFunction*%
%TD*%
%TO.P,C3,2*%
%TO.N,GND*%
%TA.AperFunction,SMDPad,CuDef*%
G36*
G01*
X140478500Y-106243000D02*
X140953500Y-106243000D01*
G75*
G02*
X141191000Y-106480500I0J-237500D01*
G01*
X141191000Y-107080500D01*
G75*
G02*
X140953500Y-107318000I-237500J0D01*
G01*
X140478500Y-107318000D01*
G75*
G02*
X140241000Y-107080500I0J237500D01*
G01*
X140241000Y-106480500D01*
G75*
G02*
X140478500Y-106243000I237500J0D01*
G01*
G37*
%TD.AperFunction*%
%TO.P,C3,1*%
%TO.N,/VOUT1*%
%TA.AperFunction,SMDPad,CuDef*%
G36*
G01*
X140478500Y-104518000D02*
X140953500Y-104518000D01*
G75*
G02*
X141191000Y-104755500I0J-237500D01*
G01*
X141191000Y-105355500D01*
G75*
G02*
X140953500Y-105593000I-237500J0D01*
G01*
X140478500Y-105593000D01*
G75*
G02*
X140241000Y-105355500I0J237500D01*
G01*
X140241000Y-104755500D01*
G75*
G02*
X140478500Y-104518000I237500J0D01*
G01*
G37*
%TD.AperFunction*%
%TD*%
%TO.P,C2,2*%
%TO.N,GND*%
%TA.AperFunction,SMDPad,CuDef*%
G36*
G01*
X142002500Y-106243000D02*
X142477500Y-106243000D01*
G75*
G02*
X142715000Y-106480500I0J-237500D01*
G01*
X142715000Y-107080500D01*
G75*
G02*
X142477500Y-107318000I-237500J0D01*
G01*
X142002500Y-107318000D01*
G75*
G02*
X141765000Y-107080500I0J237500D01*
G01*
X141765000Y-106480500D01*
G75*
G02*
X142002500Y-106243000I237500J0D01*
G01*
G37*
%TD.AperFunction*%
%TO.P,C2,1*%
%TO.N,/VOUT2*%
%TA.AperFunction,SMDPad,CuDef*%
G36*
G01*
X142002500Y-104518000D02*
X142477500Y-104518000D01*
G75*
G02*
X142715000Y-104755500I0J-237500D01*
G01*
X142715000Y-105355500D01*
G75*
G02*
X142477500Y-105593000I-237500J0D01*
G01*
X142002500Y-105593000D01*
G75*
G02*
X141765000Y-105355500I0J237500D01*
G01*
X141765000Y-104755500D01*
G75*
G02*
X142002500Y-104518000I237500J0D01*
G01*
G37*
%TD.AperFunction*%
%TD*%
%TO.P,C1,2*%
%TO.N,GND*%
%TA.AperFunction,SMDPad,CuDef*%
G36*
G01*
X144034500Y-106243000D02*
X144509500Y-106243000D01*
G75*
G02*
X144747000Y-106480500I0J-237500D01*
G01*
X144747000Y-107080500D01*
G75*
G02*
X144509500Y-107318000I-237500J0D01*
G01*
X144034500Y-107318000D01*
G75*
G02*
X143797000Y-107080500I0J237500D01*
G01*
X143797000Y-106480500D01*
G75*
G02*
X144034500Y-106243000I237500J0D01*
G01*
G37*
%TD.AperFunction*%
%TO.P,C1,1*%
%TO.N,/VOUT3*%
%TA.AperFunction,SMDPad,CuDef*%
G36*
G01*
X144034500Y-104518000D02*
X144509500Y-104518000D01*
G75*
G02*
X144747000Y-104755500I0J-237500D01*
G01*
X144747000Y-105355500D01*
G75*
G02*
X144509500Y-105593000I-237500J0D01*
G01*
X144034500Y-105593000D01*
G75*
G02*
X143797000Y-105355500I0J237500D01*
G01*
X143797000Y-104755500D01*
G75*
G02*
X144034500Y-104518000I237500J0D01*
G01*
G37*
%TD.AperFunction*%
%TD*%
D16*
%TO.N,GND*%
X141732000Y-102108000D03*
X142748000Y-102108000D03*
X142748000Y-101092000D03*
X141732000Y-101092000D03*
X144526000Y-99822000D03*
X144780000Y-103378000D03*
X139954000Y-103378000D03*
X139700000Y-98552000D03*
X148844000Y-101346000D03*
X147828000Y-98552000D03*
X145288000Y-97790000D03*
X141986000Y-97790000D03*
X136398000Y-99060000D03*
X135890000Y-101346000D03*
X139446000Y-105918000D03*
X146050000Y-106172000D03*
X140716000Y-108966000D03*
X142240000Y-108966000D03*
X144272000Y-108966000D03*
X147066000Y-103378000D03*
X151384000Y-103886000D03*
X151638000Y-98552000D03*
X130556000Y-109220000D03*
X134620000Y-113284000D03*
X130556000Y-93980000D03*
X134620000Y-89916000D03*
X130556000Y-98552000D03*
X153924000Y-109220000D03*
X153924000Y-93980000D03*
X149860000Y-89916000D03*
X149860000Y-113284000D03*
%TO.N,/VOUT2*%
X143256000Y-105054400D03*
%TO.N,/VOUT1*%
X139700000Y-105054400D03*
%TD*%
D17*
%TO.N,GND*%
X142947201Y-100892799D02*
X142748000Y-101092000D01*
X143419964Y-100849999D02*
X143377164Y-100892799D01*
X143377164Y-100892799D02*
X142947201Y-100892799D01*
X143687800Y-100849999D02*
X143419964Y-100849999D01*
%TO.N,/VOUT3*%
X149352000Y-102870000D02*
X153670000Y-102870000D01*
X147166500Y-105055500D02*
X149352000Y-102870000D01*
X142990001Y-103773501D02*
X144272000Y-105055500D01*
X142990001Y-103047800D02*
X142990001Y-103773501D01*
X147166500Y-105055500D02*
X144272000Y-105055500D01*
%TO.N,/VOUT2*%
X141990000Y-103047800D02*
X141990000Y-103890000D01*
X142240000Y-104140000D02*
X142240000Y-105055500D01*
X141990000Y-103890000D02*
X142240000Y-104140000D01*
X143254900Y-105055500D02*
X143256000Y-105054400D01*
X142240000Y-105055500D02*
X143254900Y-105055500D01*
%TO.N,/VOUT1*%
X141489999Y-104281501D02*
X140716000Y-105055500D01*
X141489999Y-103047800D02*
X141489999Y-104281501D01*
X139701100Y-105055500D02*
X139700000Y-105054400D01*
X140716000Y-105055500D02*
X139701100Y-105055500D01*
D18*
%TO.N,/VIN*%
X138176000Y-100684500D02*
X137006500Y-100684500D01*
X136652000Y-100330000D02*
X130810000Y-100330000D01*
X137006500Y-100684500D02*
X136652000Y-100330000D01*
X137006500Y-100684500D02*
X137006500Y-102208500D01*
X137313500Y-102515500D02*
X138176000Y-102515500D01*
X137006500Y-102208500D02*
X137313500Y-102515500D01*
D17*
X138176000Y-102515500D02*
X139190900Y-102515500D01*
X139856400Y-101850000D02*
X139190900Y-102515500D01*
X140792200Y-101850000D02*
X139856400Y-101850000D01*
D18*
X138176000Y-100684500D02*
X139091500Y-100684500D01*
D17*
X139757000Y-101350000D02*
X139091500Y-100684500D01*
X140792200Y-101350000D02*
X139757000Y-101350000D01*
X140372399Y-100849999D02*
X139649200Y-100126800D01*
X140792200Y-100849999D02*
X140372399Y-100849999D01*
D18*
X139649200Y-100126800D02*
X140817600Y-98958400D01*
X139091500Y-100684500D02*
X139649200Y-100126800D01*
D17*
X141489999Y-100152200D02*
X141489999Y-98995799D01*
X141489999Y-98995799D02*
X141452600Y-98958400D01*
D18*
X140817600Y-98958400D02*
X141452600Y-98958400D01*
D17*
X141990000Y-98962400D02*
X141986000Y-98958400D01*
X141990000Y-100152200D02*
X141990000Y-98962400D01*
D18*
X141452600Y-98958400D02*
X141986000Y-98958400D01*
D17*
X145083700Y-102462500D02*
X146050000Y-102462500D01*
X144471200Y-101850000D02*
X145083700Y-102462500D01*
X143687800Y-101850000D02*
X144471200Y-101850000D01*
D18*
X146965500Y-102462500D02*
X146050000Y-102462500D01*
X147320000Y-99568000D02*
X147320000Y-102108000D01*
X146710400Y-98958400D02*
X147320000Y-99568000D01*
X147320000Y-102108000D02*
X146965500Y-102462500D01*
X141986000Y-98958400D02*
X146710400Y-98958400D01*
%TD*%
D17*
%TO.N,GND*%
X136435000Y-100921223D02*
X136435001Y-102180416D01*
X136432235Y-102208500D01*
X136443269Y-102320533D01*
X136475948Y-102428261D01*
X136528779Y-102527100D01*
X136529017Y-102527545D01*
X136600434Y-102614567D01*
X136622244Y-102632466D01*
X136889530Y-102899752D01*
X136907433Y-102921567D01*
X136994455Y-102992984D01*
X137093738Y-103046052D01*
X137201466Y-103078731D01*
X137285426Y-103087000D01*
X137313500Y-103089765D01*
X137341574Y-103087000D01*
X137383608Y-103087000D01*
X137410893Y-103138047D01*
X137346506Y-103172463D01*
X137249815Y-103251815D01*
X137170463Y-103348506D01*
X137111498Y-103458820D01*
X137075188Y-103578518D01*
X137062928Y-103703000D01*
X137066000Y-103954750D01*
X137224750Y-104113500D01*
X138049000Y-104113500D01*
X138049000Y-104093500D01*
X138303000Y-104093500D01*
X138303000Y-104113500D01*
X139127250Y-104113500D01*
X139286000Y-103954750D01*
X139289072Y-103703000D01*
X139276812Y-103578518D01*
X139240502Y-103458820D01*
X139181537Y-103348506D01*
X139102185Y-103251815D01*
X139005494Y-103172463D01*
X138941107Y-103138047D01*
X138986622Y-103052895D01*
X138995539Y-103023500D01*
X139165956Y-103023500D01*
X139190900Y-103025957D01*
X139215844Y-103023500D01*
X139215847Y-103023500D01*
X139290485Y-103016149D01*
X139386243Y-102987101D01*
X139474495Y-102939929D01*
X139551848Y-102876448D01*
X139567755Y-102857065D01*
X140002957Y-102421864D01*
X140002957Y-102477001D01*
X140010313Y-102551690D01*
X140032099Y-102623509D01*
X140067478Y-102689697D01*
X140115089Y-102747712D01*
X140173104Y-102795323D01*
X140239292Y-102830702D01*
X140311111Y-102852488D01*
X140385800Y-102859844D01*
X140770737Y-102859844D01*
X140782363Y-102881594D01*
X140861715Y-102978285D01*
X140958406Y-103057637D01*
X140980156Y-103069263D01*
X140980156Y-103454200D01*
X140981999Y-103472916D01*
X140982000Y-104071080D01*
X140917923Y-104135157D01*
X140478500Y-104135157D01*
X140357477Y-104147077D01*
X140241105Y-104182378D01*
X140133856Y-104239704D01*
X140039851Y-104316851D01*
X139962704Y-104410856D01*
X139934241Y-104464107D01*
X139885223Y-104443803D01*
X139762542Y-104419400D01*
X139637458Y-104419400D01*
X139514777Y-104443803D01*
X139399215Y-104491671D01*
X139295211Y-104561164D01*
X139286532Y-104569843D01*
X139286000Y-104526250D01*
X139127250Y-104367500D01*
X138303000Y-104367500D01*
X138303000Y-105254250D01*
X138461750Y-105413000D01*
X138651000Y-105416072D01*
X138775482Y-105403812D01*
X138895180Y-105367502D01*
X139005494Y-105308537D01*
X139089419Y-105239662D01*
X139137271Y-105355185D01*
X139206764Y-105459189D01*
X139295211Y-105547636D01*
X139399215Y-105617129D01*
X139514777Y-105664997D01*
X139637458Y-105689400D01*
X139762542Y-105689400D01*
X139885223Y-105664997D01*
X139933278Y-105645092D01*
X139950893Y-105678047D01*
X139886506Y-105712463D01*
X139789815Y-105791815D01*
X139710463Y-105888506D01*
X139651498Y-105998820D01*
X139615188Y-106118518D01*
X139602928Y-106243000D01*
X139606000Y-106494750D01*
X139764750Y-106653500D01*
X140589000Y-106653500D01*
X140589000Y-106633500D01*
X140843000Y-106633500D01*
X140843000Y-106653500D01*
X142113000Y-106653500D01*
X142113000Y-106633500D01*
X142367000Y-106633500D01*
X142367000Y-106653500D01*
X143191250Y-106653500D01*
X143256000Y-106588750D01*
X143320750Y-106653500D01*
X144145000Y-106653500D01*
X144145000Y-106633500D01*
X144399000Y-106633500D01*
X144399000Y-106653500D01*
X145223250Y-106653500D01*
X145382000Y-106494750D01*
X145385072Y-106243000D01*
X145372812Y-106118518D01*
X145336502Y-105998820D01*
X145277537Y-105888506D01*
X145198185Y-105791815D01*
X145167814Y-105766890D01*
X152228524Y-105766890D01*
X152273175Y-105914099D01*
X152398359Y-106176920D01*
X152572412Y-106410269D01*
X152788645Y-106605178D01*
X153038748Y-106754157D01*
X153313109Y-106851481D01*
X153543000Y-106730814D01*
X153543000Y-105537000D01*
X152349845Y-105537000D01*
X152228524Y-105766890D01*
X145167814Y-105766890D01*
X145101494Y-105712463D01*
X145037107Y-105678047D01*
X145082622Y-105592895D01*
X145091539Y-105563500D01*
X147141556Y-105563500D01*
X147166500Y-105565957D01*
X147191444Y-105563500D01*
X147191447Y-105563500D01*
X147266085Y-105556149D01*
X147361843Y-105527101D01*
X147450095Y-105479929D01*
X147527448Y-105416448D01*
X147543355Y-105397065D01*
X149562420Y-103378000D01*
X152547996Y-103378000D01*
X152579102Y-103453097D01*
X152713820Y-103654717D01*
X152885283Y-103826180D01*
X153086903Y-103960898D01*
X153201168Y-104008228D01*
X153038748Y-104065843D01*
X152788645Y-104214822D01*
X152572412Y-104409731D01*
X152398359Y-104643080D01*
X152273175Y-104905901D01*
X152228524Y-105053110D01*
X152349845Y-105283000D01*
X153543000Y-105283000D01*
X153543000Y-105263000D01*
X153797000Y-105263000D01*
X153797000Y-105283000D01*
X153817000Y-105283000D01*
X153817000Y-105537000D01*
X153797000Y-105537000D01*
X153797000Y-106730814D01*
X154026891Y-106851481D01*
X154301252Y-106754157D01*
X154534001Y-106615515D01*
X154534001Y-113894000D01*
X129946000Y-113894000D01*
X129946000Y-111619059D01*
X130649000Y-111619059D01*
X130649000Y-111900941D01*
X130703993Y-112177407D01*
X130811864Y-112437833D01*
X130968470Y-112672209D01*
X131167791Y-112871530D01*
X131402167Y-113028136D01*
X131662593Y-113136007D01*
X131939059Y-113191000D01*
X132220941Y-113191000D01*
X132497407Y-113136007D01*
X132757833Y-113028136D01*
X132992209Y-112871530D01*
X133191530Y-112672209D01*
X133348136Y-112437833D01*
X133456007Y-112177407D01*
X133511000Y-111900941D01*
X133511000Y-111619059D01*
X150969000Y-111619059D01*
X150969000Y-111900941D01*
X151023993Y-112177407D01*
X151131864Y-112437833D01*
X151288470Y-112672209D01*
X151487791Y-112871530D01*
X151722167Y-113028136D01*
X151982593Y-113136007D01*
X152259059Y-113191000D01*
X152540941Y-113191000D01*
X152817407Y-113136007D01*
X153077833Y-113028136D01*
X153312209Y-112871530D01*
X153511530Y-112672209D01*
X153668136Y-112437833D01*
X153776007Y-112177407D01*
X153831000Y-111900941D01*
X153831000Y-111619059D01*
X153776007Y-111342593D01*
X153668136Y-111082167D01*
X153511530Y-110847791D01*
X153312209Y-110648470D01*
X153077833Y-110491864D01*
X152817407Y-110383993D01*
X152540941Y-110329000D01*
X152259059Y-110329000D01*
X151982593Y-110383993D01*
X151722167Y-110491864D01*
X151487791Y-110648470D01*
X151288470Y-110847791D01*
X151131864Y-111082167D01*
X151023993Y-111342593D01*
X150969000Y-111619059D01*
X133511000Y-111619059D01*
X133456007Y-111342593D01*
X133348136Y-111082167D01*
X133191530Y-110847791D01*
X132992209Y-110648470D01*
X132757833Y-110491864D01*
X132497407Y-110383993D01*
X132220941Y-110329000D01*
X131939059Y-110329000D01*
X131662593Y-110383993D01*
X131402167Y-110491864D01*
X131167791Y-110648470D01*
X130968470Y-110847791D01*
X130811864Y-111082167D01*
X130703993Y-111342593D01*
X130649000Y-111619059D01*
X129946000Y-111619059D01*
X129946000Y-107318000D01*
X139602928Y-107318000D01*
X139615188Y-107442482D01*
X139651498Y-107562180D01*
X139710463Y-107672494D01*
X139789815Y-107769185D01*
X139886506Y-107848537D01*
X139996820Y-107907502D01*
X140116518Y-107943812D01*
X140241000Y-107956072D01*
X140430250Y-107953000D01*
X140589000Y-107794250D01*
X140589000Y-106907500D01*
X140843000Y-106907500D01*
X140843000Y-107794250D01*
X141001750Y-107953000D01*
X141191000Y-107956072D01*
X141315482Y-107943812D01*
X141435180Y-107907502D01*
X141478000Y-107884614D01*
X141520820Y-107907502D01*
X141640518Y-107943812D01*
X141765000Y-107956072D01*
X141954250Y-107953000D01*
X142113000Y-107794250D01*
X142113000Y-106907500D01*
X142367000Y-106907500D01*
X142367000Y-107794250D01*
X142525750Y-107953000D01*
X142715000Y-107956072D01*
X142839482Y-107943812D01*
X142959180Y-107907502D01*
X143069494Y-107848537D01*
X143166185Y-107769185D01*
X143245537Y-107672494D01*
X143256000Y-107652919D01*
X143266463Y-107672494D01*
X143345815Y-107769185D01*
X143442506Y-107848537D01*
X143552820Y-107907502D01*
X143672518Y-107943812D01*
X143797000Y-107956072D01*
X143986250Y-107953000D01*
X144145000Y-107794250D01*
X144145000Y-106907500D01*
X144399000Y-106907500D01*
X144399000Y-107794250D01*
X144557750Y-107953000D01*
X144747000Y-107956072D01*
X144871482Y-107943812D01*
X144991180Y-107907502D01*
X145101494Y-107848537D01*
X145113114Y-107839000D01*
X148733000Y-107839000D01*
X148733000Y-108061000D01*
X148776310Y-108278734D01*
X148861266Y-108483835D01*
X148984602Y-108668421D01*
X149141579Y-108825398D01*
X149326165Y-108948734D01*
X149531266Y-109033690D01*
X149749000Y-109077000D01*
X149971000Y-109077000D01*
X150188734Y-109033690D01*
X150393835Y-108948734D01*
X150578421Y-108825398D01*
X150735398Y-108668421D01*
X150858734Y-108483835D01*
X150943690Y-108278734D01*
X150987000Y-108061000D01*
X150987000Y-107839000D01*
X150943690Y-107621266D01*
X150858734Y-107416165D01*
X150735398Y-107231579D01*
X150578421Y-107074602D01*
X150393835Y-106951266D01*
X150188734Y-106866310D01*
X149971000Y-106823000D01*
X149749000Y-106823000D01*
X149531266Y-106866310D01*
X149326165Y-106951266D01*
X149141579Y-107074602D01*
X148984602Y-107231579D01*
X148861266Y-107416165D01*
X148776310Y-107621266D01*
X148733000Y-107839000D01*
X145113114Y-107839000D01*
X145198185Y-107769185D01*
X145277537Y-107672494D01*
X145336502Y-107562180D01*
X145372812Y-107442482D01*
X145385072Y-107318000D01*
X145382000Y-107066250D01*
X145223250Y-106907500D01*
X144399000Y-106907500D01*
X144145000Y-106907500D01*
X143320750Y-106907500D01*
X143256000Y-106972250D01*
X143191250Y-106907500D01*
X142367000Y-106907500D01*
X142113000Y-106907500D01*
X140843000Y-106907500D01*
X140589000Y-106907500D01*
X139764750Y-106907500D01*
X139606000Y-107066250D01*
X139602928Y-107318000D01*
X129946000Y-107318000D01*
X129946000Y-104778000D01*
X137062928Y-104778000D01*
X137075188Y-104902482D01*
X137111498Y-105022180D01*
X137170463Y-105132494D01*
X137249815Y-105229185D01*
X137346506Y-105308537D01*
X137456820Y-105367502D01*
X137576518Y-105403812D01*
X137701000Y-105416072D01*
X137890250Y-105413000D01*
X138049000Y-105254250D01*
X138049000Y-104367500D01*
X137224750Y-104367500D01*
X137066000Y-104526250D01*
X137062928Y-104778000D01*
X129946000Y-104778000D01*
X129946000Y-104075516D01*
X130178748Y-104214157D01*
X130453109Y-104311481D01*
X130683000Y-104190814D01*
X130683000Y-102997000D01*
X130937000Y-102997000D01*
X130937000Y-104190814D01*
X131166891Y-104311481D01*
X131441252Y-104214157D01*
X131691355Y-104065178D01*
X131907588Y-103870269D01*
X132081641Y-103636920D01*
X132206825Y-103374099D01*
X132251476Y-103226890D01*
X132130155Y-102997000D01*
X130937000Y-102997000D01*
X130683000Y-102997000D01*
X130663000Y-102997000D01*
X130663000Y-102743000D01*
X130683000Y-102743000D01*
X130683000Y-102723000D01*
X130937000Y-102723000D01*
X130937000Y-102743000D01*
X132130155Y-102743000D01*
X132251476Y-102513110D01*
X132206825Y-102365901D01*
X132081641Y-102103080D01*
X131907588Y-101869731D01*
X131691355Y-101674822D01*
X131503367Y-101562843D01*
X131660000Y-101562843D01*
X131734689Y-101555487D01*
X131806508Y-101533701D01*
X131872696Y-101498322D01*
X131930711Y-101450711D01*
X131978322Y-101392696D01*
X132013701Y-101326508D01*
X132035487Y-101254689D01*
X132042843Y-101180000D01*
X132042843Y-100901500D01*
X136415278Y-100901500D01*
X136435000Y-100921223D01*
%TA.AperFunction,Conductor*%
D19*
G36*
X136435000Y-100921223D02*
G01*
X136435001Y-102180416D01*
X136432235Y-102208500D01*
X136443269Y-102320533D01*
X136475948Y-102428261D01*
X136528779Y-102527100D01*
X136529017Y-102527545D01*
X136600434Y-102614567D01*
X136622244Y-102632466D01*
X136889530Y-102899752D01*
X136907433Y-102921567D01*
X136994455Y-102992984D01*
X137093738Y-103046052D01*
X137201466Y-103078731D01*
X137285426Y-103087000D01*
X137313500Y-103089765D01*
X137341574Y-103087000D01*
X137383608Y-103087000D01*
X137410893Y-103138047D01*
X137346506Y-103172463D01*
X137249815Y-103251815D01*
X137170463Y-103348506D01*
X137111498Y-103458820D01*
X137075188Y-103578518D01*
X137062928Y-103703000D01*
X137066000Y-103954750D01*
X137224750Y-104113500D01*
X138049000Y-104113500D01*
X138049000Y-104093500D01*
X138303000Y-104093500D01*
X138303000Y-104113500D01*
X139127250Y-104113500D01*
X139286000Y-103954750D01*
X139289072Y-103703000D01*
X139276812Y-103578518D01*
X139240502Y-103458820D01*
X139181537Y-103348506D01*
X139102185Y-103251815D01*
X139005494Y-103172463D01*
X138941107Y-103138047D01*
X138986622Y-103052895D01*
X138995539Y-103023500D01*
X139165956Y-103023500D01*
X139190900Y-103025957D01*
X139215844Y-103023500D01*
X139215847Y-103023500D01*
X139290485Y-103016149D01*
X139386243Y-102987101D01*
X139474495Y-102939929D01*
X139551848Y-102876448D01*
X139567755Y-102857065D01*
X140002957Y-102421864D01*
X140002957Y-102477001D01*
X140010313Y-102551690D01*
X140032099Y-102623509D01*
X140067478Y-102689697D01*
X140115089Y-102747712D01*
X140173104Y-102795323D01*
X140239292Y-102830702D01*
X140311111Y-102852488D01*
X140385800Y-102859844D01*
X140770737Y-102859844D01*
X140782363Y-102881594D01*
X140861715Y-102978285D01*
X140958406Y-103057637D01*
X140980156Y-103069263D01*
X140980156Y-103454200D01*
X140981999Y-103472916D01*
X140982000Y-104071080D01*
X140917923Y-104135157D01*
X140478500Y-104135157D01*
X140357477Y-104147077D01*
X140241105Y-104182378D01*
X140133856Y-104239704D01*
X140039851Y-104316851D01*
X139962704Y-104410856D01*
X139934241Y-104464107D01*
X139885223Y-104443803D01*
X139762542Y-104419400D01*
X139637458Y-104419400D01*
X139514777Y-104443803D01*
X139399215Y-104491671D01*
X139295211Y-104561164D01*
X139286532Y-104569843D01*
X139286000Y-104526250D01*
X139127250Y-104367500D01*
X138303000Y-104367500D01*
X138303000Y-105254250D01*
X138461750Y-105413000D01*
X138651000Y-105416072D01*
X138775482Y-105403812D01*
X138895180Y-105367502D01*
X139005494Y-105308537D01*
X139089419Y-105239662D01*
X139137271Y-105355185D01*
X139206764Y-105459189D01*
X139295211Y-105547636D01*
X139399215Y-105617129D01*
X139514777Y-105664997D01*
X139637458Y-105689400D01*
X139762542Y-105689400D01*
X139885223Y-105664997D01*
X139933278Y-105645092D01*
X139950893Y-105678047D01*
X139886506Y-105712463D01*
X139789815Y-105791815D01*
X139710463Y-105888506D01*
X139651498Y-105998820D01*
X139615188Y-106118518D01*
X139602928Y-106243000D01*
X139606000Y-106494750D01*
X139764750Y-106653500D01*
X140589000Y-106653500D01*
X140589000Y-106633500D01*
X140843000Y-106633500D01*
X140843000Y-106653500D01*
X142113000Y-106653500D01*
X142113000Y-106633500D01*
X142367000Y-106633500D01*
X142367000Y-106653500D01*
X143191250Y-106653500D01*
X143256000Y-106588750D01*
X143320750Y-106653500D01*
X144145000Y-106653500D01*
X144145000Y-106633500D01*
X144399000Y-106633500D01*
X144399000Y-106653500D01*
X145223250Y-106653500D01*
X145382000Y-106494750D01*
X145385072Y-106243000D01*
X145372812Y-106118518D01*
X145336502Y-105998820D01*
X145277537Y-105888506D01*
X145198185Y-105791815D01*
X145167814Y-105766890D01*
X152228524Y-105766890D01*
X152273175Y-105914099D01*
X152398359Y-106176920D01*
X152572412Y-106410269D01*
X152788645Y-106605178D01*
X153038748Y-106754157D01*
X153313109Y-106851481D01*
X153543000Y-106730814D01*
X153543000Y-105537000D01*
X152349845Y-105537000D01*
X152228524Y-105766890D01*
X145167814Y-105766890D01*
X145101494Y-105712463D01*
X145037107Y-105678047D01*
X145082622Y-105592895D01*
X145091539Y-105563500D01*
X147141556Y-105563500D01*
X147166500Y-105565957D01*
X147191444Y-105563500D01*
X147191447Y-105563500D01*
X147266085Y-105556149D01*
X147361843Y-105527101D01*
X147450095Y-105479929D01*
X147527448Y-105416448D01*
X147543355Y-105397065D01*
X149562420Y-103378000D01*
X152547996Y-103378000D01*
X152579102Y-103453097D01*
X152713820Y-103654717D01*
X152885283Y-103826180D01*
X153086903Y-103960898D01*
X153201168Y-104008228D01*
X153038748Y-104065843D01*
X152788645Y-104214822D01*
X152572412Y-104409731D01*
X152398359Y-104643080D01*
X152273175Y-104905901D01*
X152228524Y-105053110D01*
X152349845Y-105283000D01*
X153543000Y-105283000D01*
X153543000Y-105263000D01*
X153797000Y-105263000D01*
X153797000Y-105283000D01*
X153817000Y-105283000D01*
X153817000Y-105537000D01*
X153797000Y-105537000D01*
X153797000Y-106730814D01*
X154026891Y-106851481D01*
X154301252Y-106754157D01*
X154534001Y-106615515D01*
X154534001Y-113894000D01*
X129946000Y-113894000D01*
X129946000Y-111619059D01*
X130649000Y-111619059D01*
X130649000Y-111900941D01*
X130703993Y-112177407D01*
X130811864Y-112437833D01*
X130968470Y-112672209D01*
X131167791Y-112871530D01*
X131402167Y-113028136D01*
X131662593Y-113136007D01*
X131939059Y-113191000D01*
X132220941Y-113191000D01*
X132497407Y-113136007D01*
X132757833Y-113028136D01*
X132992209Y-112871530D01*
X133191530Y-112672209D01*
X133348136Y-112437833D01*
X133456007Y-112177407D01*
X133511000Y-111900941D01*
X133511000Y-111619059D01*
X150969000Y-111619059D01*
X150969000Y-111900941D01*
X151023993Y-112177407D01*
X151131864Y-112437833D01*
X151288470Y-112672209D01*
X151487791Y-112871530D01*
X151722167Y-113028136D01*
X151982593Y-113136007D01*
X152259059Y-113191000D01*
X152540941Y-113191000D01*
X152817407Y-113136007D01*
X153077833Y-113028136D01*
X153312209Y-112871530D01*
X153511530Y-112672209D01*
X153668136Y-112437833D01*
X153776007Y-112177407D01*
X153831000Y-111900941D01*
X153831000Y-111619059D01*
X153776007Y-111342593D01*
X153668136Y-111082167D01*
X153511530Y-110847791D01*
X153312209Y-110648470D01*
X153077833Y-110491864D01*
X152817407Y-110383993D01*
X152540941Y-110329000D01*
X152259059Y-110329000D01*
X151982593Y-110383993D01*
X151722167Y-110491864D01*
X151487791Y-110648470D01*
X151288470Y-110847791D01*
X151131864Y-111082167D01*
X151023993Y-111342593D01*
X150969000Y-111619059D01*
X133511000Y-111619059D01*
X133456007Y-111342593D01*
X133348136Y-111082167D01*
X133191530Y-110847791D01*
X132992209Y-110648470D01*
X132757833Y-110491864D01*
X132497407Y-110383993D01*
X132220941Y-110329000D01*
X131939059Y-110329000D01*
X131662593Y-110383993D01*
X131402167Y-110491864D01*
X131167791Y-110648470D01*
X130968470Y-110847791D01*
X130811864Y-111082167D01*
X130703993Y-111342593D01*
X130649000Y-111619059D01*
X129946000Y-111619059D01*
X129946000Y-107318000D01*
X139602928Y-107318000D01*
X139615188Y-107442482D01*
X139651498Y-107562180D01*
X139710463Y-107672494D01*
X139789815Y-107769185D01*
X139886506Y-107848537D01*
X139996820Y-107907502D01*
X140116518Y-107943812D01*
X140241000Y-107956072D01*
X140430250Y-107953000D01*
X140589000Y-107794250D01*
X140589000Y-106907500D01*
X140843000Y-106907500D01*
X140843000Y-107794250D01*
X141001750Y-107953000D01*
X141191000Y-107956072D01*
X141315482Y-107943812D01*
X141435180Y-107907502D01*
X141478000Y-107884614D01*
X141520820Y-107907502D01*
X141640518Y-107943812D01*
X141765000Y-107956072D01*
X141954250Y-107953000D01*
X142113000Y-107794250D01*
X142113000Y-106907500D01*
X142367000Y-106907500D01*
X142367000Y-107794250D01*
X142525750Y-107953000D01*
X142715000Y-107956072D01*
X142839482Y-107943812D01*
X142959180Y-107907502D01*
X143069494Y-107848537D01*
X143166185Y-107769185D01*
X143245537Y-107672494D01*
X143256000Y-107652919D01*
X143266463Y-107672494D01*
X143345815Y-107769185D01*
X143442506Y-107848537D01*
X143552820Y-107907502D01*
X143672518Y-107943812D01*
X143797000Y-107956072D01*
X143986250Y-107953000D01*
X144145000Y-107794250D01*
X144145000Y-106907500D01*
X144399000Y-106907500D01*
X144399000Y-107794250D01*
X144557750Y-107953000D01*
X144747000Y-107956072D01*
X144871482Y-107943812D01*
X144991180Y-107907502D01*
X145101494Y-107848537D01*
X145113114Y-107839000D01*
X148733000Y-107839000D01*
X148733000Y-108061000D01*
X148776310Y-108278734D01*
X148861266Y-108483835D01*
X148984602Y-108668421D01*
X149141579Y-108825398D01*
X149326165Y-108948734D01*
X149531266Y-109033690D01*
X149749000Y-109077000D01*
X149971000Y-109077000D01*
X150188734Y-109033690D01*
X150393835Y-108948734D01*
X150578421Y-108825398D01*
X150735398Y-108668421D01*
X150858734Y-108483835D01*
X150943690Y-108278734D01*
X150987000Y-108061000D01*
X150987000Y-107839000D01*
X150943690Y-107621266D01*
X150858734Y-107416165D01*
X150735398Y-107231579D01*
X150578421Y-107074602D01*
X150393835Y-106951266D01*
X150188734Y-106866310D01*
X149971000Y-106823000D01*
X149749000Y-106823000D01*
X149531266Y-106866310D01*
X149326165Y-106951266D01*
X149141579Y-107074602D01*
X148984602Y-107231579D01*
X148861266Y-107416165D01*
X148776310Y-107621266D01*
X148733000Y-107839000D01*
X145113114Y-107839000D01*
X145198185Y-107769185D01*
X145277537Y-107672494D01*
X145336502Y-107562180D01*
X145372812Y-107442482D01*
X145385072Y-107318000D01*
X145382000Y-107066250D01*
X145223250Y-106907500D01*
X144399000Y-106907500D01*
X144145000Y-106907500D01*
X143320750Y-106907500D01*
X143256000Y-106972250D01*
X143191250Y-106907500D01*
X142367000Y-106907500D01*
X142113000Y-106907500D01*
X140843000Y-106907500D01*
X140589000Y-106907500D01*
X139764750Y-106907500D01*
X139606000Y-107066250D01*
X139602928Y-107318000D01*
X129946000Y-107318000D01*
X129946000Y-104778000D01*
X137062928Y-104778000D01*
X137075188Y-104902482D01*
X137111498Y-105022180D01*
X137170463Y-105132494D01*
X137249815Y-105229185D01*
X137346506Y-105308537D01*
X137456820Y-105367502D01*
X137576518Y-105403812D01*
X137701000Y-105416072D01*
X137890250Y-105413000D01*
X138049000Y-105254250D01*
X138049000Y-104367500D01*
X137224750Y-104367500D01*
X137066000Y-104526250D01*
X137062928Y-104778000D01*
X129946000Y-104778000D01*
X129946000Y-104075516D01*
X130178748Y-104214157D01*
X130453109Y-104311481D01*
X130683000Y-104190814D01*
X130683000Y-102997000D01*
X130937000Y-102997000D01*
X130937000Y-104190814D01*
X131166891Y-104311481D01*
X131441252Y-104214157D01*
X131691355Y-104065178D01*
X131907588Y-103870269D01*
X132081641Y-103636920D01*
X132206825Y-103374099D01*
X132251476Y-103226890D01*
X132130155Y-102997000D01*
X130937000Y-102997000D01*
X130683000Y-102997000D01*
X130663000Y-102997000D01*
X130663000Y-102743000D01*
X130683000Y-102743000D01*
X130683000Y-102723000D01*
X130937000Y-102723000D01*
X130937000Y-102743000D01*
X132130155Y-102743000D01*
X132251476Y-102513110D01*
X132206825Y-102365901D01*
X132081641Y-102103080D01*
X131907588Y-101869731D01*
X131691355Y-101674822D01*
X131503367Y-101562843D01*
X131660000Y-101562843D01*
X131734689Y-101555487D01*
X131806508Y-101533701D01*
X131872696Y-101498322D01*
X131930711Y-101450711D01*
X131978322Y-101392696D01*
X132013701Y-101326508D01*
X132035487Y-101254689D01*
X132042843Y-101180000D01*
X132042843Y-100901500D01*
X136415278Y-100901500D01*
X136435000Y-100921223D01*
G37*
%TD.AperFunction*%
D17*
X154534000Y-96558536D02*
X154520000Y-96557157D01*
X152820000Y-96557157D01*
X152745311Y-96564513D01*
X152673492Y-96586299D01*
X152607304Y-96621678D01*
X152549289Y-96669289D01*
X152501678Y-96727304D01*
X152466299Y-96793492D01*
X152444513Y-96865311D01*
X152437157Y-96940000D01*
X152437157Y-98640000D01*
X152444513Y-98714689D01*
X152466299Y-98786508D01*
X152501678Y-98852696D01*
X152549289Y-98910711D01*
X152607304Y-98958322D01*
X152673492Y-98993701D01*
X152745311Y-99015487D01*
X152820000Y-99022843D01*
X154520000Y-99022843D01*
X154534000Y-99021464D01*
X154534000Y-99453103D01*
X154454717Y-99373820D01*
X154253097Y-99239102D01*
X154029069Y-99146307D01*
X153791243Y-99099000D01*
X153548757Y-99099000D01*
X153310931Y-99146307D01*
X153086903Y-99239102D01*
X152885283Y-99373820D01*
X152713820Y-99545283D01*
X152579102Y-99746903D01*
X152486307Y-99970931D01*
X152439000Y-100208757D01*
X152439000Y-100451243D01*
X152486307Y-100689069D01*
X152579102Y-100913097D01*
X152713820Y-101114717D01*
X152885283Y-101286180D01*
X153086903Y-101420898D01*
X153310931Y-101513693D01*
X153548757Y-101561000D01*
X153791243Y-101561000D01*
X154029069Y-101513693D01*
X154253097Y-101420898D01*
X154454717Y-101286180D01*
X154534000Y-101206897D01*
X154534001Y-101993104D01*
X154454717Y-101913820D01*
X154253097Y-101779102D01*
X154029069Y-101686307D01*
X153791243Y-101639000D01*
X153548757Y-101639000D01*
X153310931Y-101686307D01*
X153086903Y-101779102D01*
X152885283Y-101913820D01*
X152713820Y-102085283D01*
X152579102Y-102286903D01*
X152547996Y-102362000D01*
X149376944Y-102362000D01*
X149352000Y-102359543D01*
X149327056Y-102362000D01*
X149327053Y-102362000D01*
X149252415Y-102369351D01*
X149156657Y-102398399D01*
X149068405Y-102445571D01*
X148991052Y-102509052D01*
X148975145Y-102528435D01*
X146956080Y-104547500D01*
X145091539Y-104547500D01*
X145082622Y-104518105D01*
X145025296Y-104410856D01*
X144948149Y-104316851D01*
X144854144Y-104239704D01*
X144746895Y-104182378D01*
X144630523Y-104147077D01*
X144509500Y-104135157D01*
X144070078Y-104135157D01*
X143498001Y-103563081D01*
X143498001Y-103472913D01*
X143499844Y-103454200D01*
X143499844Y-103069263D01*
X143521594Y-103057637D01*
X143618285Y-102978285D01*
X143697637Y-102881594D01*
X143709263Y-102859844D01*
X144094200Y-102859844D01*
X144168889Y-102852488D01*
X144240708Y-102830702D01*
X144306896Y-102795323D01*
X144364911Y-102747712D01*
X144412522Y-102689697D01*
X144447901Y-102623509D01*
X144466145Y-102563365D01*
X144706845Y-102804065D01*
X144722752Y-102823448D01*
X144800105Y-102886929D01*
X144888357Y-102934101D01*
X144984115Y-102963149D01*
X145058753Y-102970500D01*
X145058756Y-102970500D01*
X145083700Y-102972957D01*
X145108644Y-102970500D01*
X145230461Y-102970500D01*
X145239378Y-102999895D01*
X145296704Y-103107144D01*
X145373851Y-103201149D01*
X145467856Y-103278296D01*
X145575105Y-103335622D01*
X145691477Y-103370923D01*
X145812500Y-103382843D01*
X146287500Y-103382843D01*
X146408523Y-103370923D01*
X146524895Y-103335622D01*
X146632144Y-103278296D01*
X146726149Y-103201149D01*
X146803296Y-103107144D01*
X146842392Y-103034000D01*
X146937426Y-103034000D01*
X146965500Y-103036765D01*
X146993574Y-103034000D01*
X147077534Y-103025731D01*
X147185262Y-102993052D01*
X147284545Y-102939984D01*
X147371567Y-102868567D01*
X147389470Y-102846752D01*
X147704257Y-102531966D01*
X147726067Y-102514067D01*
X147797484Y-102427045D01*
X147850552Y-102327762D01*
X147883231Y-102220034D01*
X147891500Y-102136074D01*
X147894265Y-102108000D01*
X147891500Y-102079926D01*
X147891500Y-99596074D01*
X147894265Y-99568000D01*
X147885114Y-99475089D01*
X147883231Y-99455966D01*
X147850552Y-99348238D01*
X147797484Y-99248955D01*
X147726067Y-99161933D01*
X147704258Y-99144035D01*
X147134370Y-98574148D01*
X147116467Y-98552333D01*
X147029445Y-98480916D01*
X146930162Y-98427848D01*
X146822434Y-98395169D01*
X146738474Y-98386900D01*
X146710400Y-98384135D01*
X146682326Y-98386900D01*
X140845671Y-98386900D01*
X140817599Y-98384135D01*
X140789527Y-98386900D01*
X140789526Y-98386900D01*
X140705566Y-98395169D01*
X140597838Y-98427848D01*
X140498555Y-98480916D01*
X140411533Y-98552333D01*
X140393634Y-98574143D01*
X139264944Y-99702834D01*
X139264939Y-99702838D01*
X139246557Y-99721220D01*
X139276812Y-99621482D01*
X139289072Y-99497000D01*
X139286000Y-99245250D01*
X139127250Y-99086500D01*
X138303000Y-99086500D01*
X138303000Y-99106500D01*
X138049000Y-99106500D01*
X138049000Y-99086500D01*
X137224750Y-99086500D01*
X137066000Y-99245250D01*
X137062928Y-99497000D01*
X137075188Y-99621482D01*
X137111498Y-99741180D01*
X137170463Y-99851494D01*
X137249815Y-99948185D01*
X137346506Y-100027537D01*
X137410893Y-100061953D01*
X137383608Y-100113000D01*
X137243223Y-100113000D01*
X137075970Y-99945748D01*
X137058067Y-99923933D01*
X136971045Y-99852516D01*
X136871762Y-99799448D01*
X136764034Y-99766769D01*
X136680074Y-99758500D01*
X136652000Y-99755735D01*
X136623926Y-99758500D01*
X132042843Y-99758500D01*
X132042843Y-99480000D01*
X132035487Y-99405311D01*
X132013701Y-99333492D01*
X131978322Y-99267304D01*
X131930711Y-99209289D01*
X131872696Y-99161678D01*
X131806508Y-99126299D01*
X131734689Y-99104513D01*
X131660000Y-99097157D01*
X129960000Y-99097157D01*
X129946000Y-99098536D01*
X129946000Y-98422000D01*
X137062928Y-98422000D01*
X137066000Y-98673750D01*
X137224750Y-98832500D01*
X138049000Y-98832500D01*
X138049000Y-97945750D01*
X138303000Y-97945750D01*
X138303000Y-98832500D01*
X139127250Y-98832500D01*
X139286000Y-98673750D01*
X139289072Y-98422000D01*
X139276812Y-98297518D01*
X139240502Y-98177820D01*
X139181537Y-98067506D01*
X139102185Y-97970815D01*
X139005494Y-97891463D01*
X138895180Y-97832498D01*
X138775482Y-97796188D01*
X138651000Y-97783928D01*
X138461750Y-97787000D01*
X138303000Y-97945750D01*
X138049000Y-97945750D01*
X137890250Y-97787000D01*
X137701000Y-97783928D01*
X137576518Y-97796188D01*
X137456820Y-97832498D01*
X137346506Y-97891463D01*
X137249815Y-97970815D01*
X137170463Y-98067506D01*
X137111498Y-98177820D01*
X137075188Y-98297518D01*
X137062928Y-98422000D01*
X129946000Y-98422000D01*
X129946000Y-95139000D01*
X133493000Y-95139000D01*
X133493000Y-95361000D01*
X133536310Y-95578734D01*
X133621266Y-95783835D01*
X133744602Y-95968421D01*
X133901579Y-96125398D01*
X134086165Y-96248734D01*
X134291266Y-96333690D01*
X134509000Y-96377000D01*
X134731000Y-96377000D01*
X134948734Y-96333690D01*
X135153835Y-96248734D01*
X135338421Y-96125398D01*
X135495398Y-95968421D01*
X135618734Y-95783835D01*
X135703690Y-95578734D01*
X135747000Y-95361000D01*
X135747000Y-95139000D01*
X135703690Y-94921266D01*
X135618734Y-94716165D01*
X135495398Y-94531579D01*
X135338421Y-94374602D01*
X135153835Y-94251266D01*
X134948734Y-94166310D01*
X134731000Y-94123000D01*
X134509000Y-94123000D01*
X134291266Y-94166310D01*
X134086165Y-94251266D01*
X133901579Y-94374602D01*
X133744602Y-94531579D01*
X133621266Y-94716165D01*
X133536310Y-94921266D01*
X133493000Y-95139000D01*
X129946000Y-95139000D01*
X129946000Y-91299059D01*
X130649000Y-91299059D01*
X130649000Y-91580941D01*
X130703993Y-91857407D01*
X130811864Y-92117833D01*
X130968470Y-92352209D01*
X131167791Y-92551530D01*
X131402167Y-92708136D01*
X131662593Y-92816007D01*
X131939059Y-92871000D01*
X132220941Y-92871000D01*
X132497407Y-92816007D01*
X132757833Y-92708136D01*
X132992209Y-92551530D01*
X133191530Y-92352209D01*
X133348136Y-92117833D01*
X133456007Y-91857407D01*
X133511000Y-91580941D01*
X133511000Y-91299059D01*
X150969000Y-91299059D01*
X150969000Y-91580941D01*
X151023993Y-91857407D01*
X151131864Y-92117833D01*
X151288470Y-92352209D01*
X151487791Y-92551530D01*
X151722167Y-92708136D01*
X151982593Y-92816007D01*
X152259059Y-92871000D01*
X152540941Y-92871000D01*
X152817407Y-92816007D01*
X153077833Y-92708136D01*
X153312209Y-92551530D01*
X153511530Y-92352209D01*
X153668136Y-92117833D01*
X153776007Y-91857407D01*
X153831000Y-91580941D01*
X153831000Y-91299059D01*
X153776007Y-91022593D01*
X153668136Y-90762167D01*
X153511530Y-90527791D01*
X153312209Y-90328470D01*
X153077833Y-90171864D01*
X152817407Y-90063993D01*
X152540941Y-90009000D01*
X152259059Y-90009000D01*
X151982593Y-90063993D01*
X151722167Y-90171864D01*
X151487791Y-90328470D01*
X151288470Y-90527791D01*
X151131864Y-90762167D01*
X151023993Y-91022593D01*
X150969000Y-91299059D01*
X133511000Y-91299059D01*
X133456007Y-91022593D01*
X133348136Y-90762167D01*
X133191530Y-90527791D01*
X132992209Y-90328470D01*
X132757833Y-90171864D01*
X132497407Y-90063993D01*
X132220941Y-90009000D01*
X131939059Y-90009000D01*
X131662593Y-90063993D01*
X131402167Y-90171864D01*
X131167791Y-90328470D01*
X130968470Y-90527791D01*
X130811864Y-90762167D01*
X130703993Y-91022593D01*
X130649000Y-91299059D01*
X129946000Y-91299059D01*
X129946000Y-89306000D01*
X154534000Y-89306000D01*
X154534000Y-96558536D01*
%TA.AperFunction,Conductor*%
D19*
G36*
X154534000Y-96558536D02*
G01*
X154520000Y-96557157D01*
X152820000Y-96557157D01*
X152745311Y-96564513D01*
X152673492Y-96586299D01*
X152607304Y-96621678D01*
X152549289Y-96669289D01*
X152501678Y-96727304D01*
X152466299Y-96793492D01*
X152444513Y-96865311D01*
X152437157Y-96940000D01*
X152437157Y-98640000D01*
X152444513Y-98714689D01*
X152466299Y-98786508D01*
X152501678Y-98852696D01*
X152549289Y-98910711D01*
X152607304Y-98958322D01*
X152673492Y-98993701D01*
X152745311Y-99015487D01*
X152820000Y-99022843D01*
X154520000Y-99022843D01*
X154534000Y-99021464D01*
X154534000Y-99453103D01*
X154454717Y-99373820D01*
X154253097Y-99239102D01*
X154029069Y-99146307D01*
X153791243Y-99099000D01*
X153548757Y-99099000D01*
X153310931Y-99146307D01*
X153086903Y-99239102D01*
X152885283Y-99373820D01*
X152713820Y-99545283D01*
X152579102Y-99746903D01*
X152486307Y-99970931D01*
X152439000Y-100208757D01*
X152439000Y-100451243D01*
X152486307Y-100689069D01*
X152579102Y-100913097D01*
X152713820Y-101114717D01*
X152885283Y-101286180D01*
X153086903Y-101420898D01*
X153310931Y-101513693D01*
X153548757Y-101561000D01*
X153791243Y-101561000D01*
X154029069Y-101513693D01*
X154253097Y-101420898D01*
X154454717Y-101286180D01*
X154534000Y-101206897D01*
X154534001Y-101993104D01*
X154454717Y-101913820D01*
X154253097Y-101779102D01*
X154029069Y-101686307D01*
X153791243Y-101639000D01*
X153548757Y-101639000D01*
X153310931Y-101686307D01*
X153086903Y-101779102D01*
X152885283Y-101913820D01*
X152713820Y-102085283D01*
X152579102Y-102286903D01*
X152547996Y-102362000D01*
X149376944Y-102362000D01*
X149352000Y-102359543D01*
X149327056Y-102362000D01*
X149327053Y-102362000D01*
X149252415Y-102369351D01*
X149156657Y-102398399D01*
X149068405Y-102445571D01*
X148991052Y-102509052D01*
X148975145Y-102528435D01*
X146956080Y-104547500D01*
X145091539Y-104547500D01*
X145082622Y-104518105D01*
X145025296Y-104410856D01*
X144948149Y-104316851D01*
X144854144Y-104239704D01*
X144746895Y-104182378D01*
X144630523Y-104147077D01*
X144509500Y-104135157D01*
X144070078Y-104135157D01*
X143498001Y-103563081D01*
X143498001Y-103472913D01*
X143499844Y-103454200D01*
X143499844Y-103069263D01*
X143521594Y-103057637D01*
X143618285Y-102978285D01*
X143697637Y-102881594D01*
X143709263Y-102859844D01*
X144094200Y-102859844D01*
X144168889Y-102852488D01*
X144240708Y-102830702D01*
X144306896Y-102795323D01*
X144364911Y-102747712D01*
X144412522Y-102689697D01*
X144447901Y-102623509D01*
X144466145Y-102563365D01*
X144706845Y-102804065D01*
X144722752Y-102823448D01*
X144800105Y-102886929D01*
X144888357Y-102934101D01*
X144984115Y-102963149D01*
X145058753Y-102970500D01*
X145058756Y-102970500D01*
X145083700Y-102972957D01*
X145108644Y-102970500D01*
X145230461Y-102970500D01*
X145239378Y-102999895D01*
X145296704Y-103107144D01*
X145373851Y-103201149D01*
X145467856Y-103278296D01*
X145575105Y-103335622D01*
X145691477Y-103370923D01*
X145812500Y-103382843D01*
X146287500Y-103382843D01*
X146408523Y-103370923D01*
X146524895Y-103335622D01*
X146632144Y-103278296D01*
X146726149Y-103201149D01*
X146803296Y-103107144D01*
X146842392Y-103034000D01*
X146937426Y-103034000D01*
X146965500Y-103036765D01*
X146993574Y-103034000D01*
X147077534Y-103025731D01*
X147185262Y-102993052D01*
X147284545Y-102939984D01*
X147371567Y-102868567D01*
X147389470Y-102846752D01*
X147704257Y-102531966D01*
X147726067Y-102514067D01*
X147797484Y-102427045D01*
X147850552Y-102327762D01*
X147883231Y-102220034D01*
X147891500Y-102136074D01*
X147894265Y-102108000D01*
X147891500Y-102079926D01*
X147891500Y-99596074D01*
X147894265Y-99568000D01*
X147885114Y-99475089D01*
X147883231Y-99455966D01*
X147850552Y-99348238D01*
X147797484Y-99248955D01*
X147726067Y-99161933D01*
X147704258Y-99144035D01*
X147134370Y-98574148D01*
X147116467Y-98552333D01*
X147029445Y-98480916D01*
X146930162Y-98427848D01*
X146822434Y-98395169D01*
X146738474Y-98386900D01*
X146710400Y-98384135D01*
X146682326Y-98386900D01*
X140845671Y-98386900D01*
X140817599Y-98384135D01*
X140789527Y-98386900D01*
X140789526Y-98386900D01*
X140705566Y-98395169D01*
X140597838Y-98427848D01*
X140498555Y-98480916D01*
X140411533Y-98552333D01*
X140393634Y-98574143D01*
X139264944Y-99702834D01*
X139264939Y-99702838D01*
X139246557Y-99721220D01*
X139276812Y-99621482D01*
X139289072Y-99497000D01*
X139286000Y-99245250D01*
X139127250Y-99086500D01*
X138303000Y-99086500D01*
X138303000Y-99106500D01*
X138049000Y-99106500D01*
X138049000Y-99086500D01*
X137224750Y-99086500D01*
X137066000Y-99245250D01*
X137062928Y-99497000D01*
X137075188Y-99621482D01*
X137111498Y-99741180D01*
X137170463Y-99851494D01*
X137249815Y-99948185D01*
X137346506Y-100027537D01*
X137410893Y-100061953D01*
X137383608Y-100113000D01*
X137243223Y-100113000D01*
X137075970Y-99945748D01*
X137058067Y-99923933D01*
X136971045Y-99852516D01*
X136871762Y-99799448D01*
X136764034Y-99766769D01*
X136680074Y-99758500D01*
X136652000Y-99755735D01*
X136623926Y-99758500D01*
X132042843Y-99758500D01*
X132042843Y-99480000D01*
X132035487Y-99405311D01*
X132013701Y-99333492D01*
X131978322Y-99267304D01*
X131930711Y-99209289D01*
X131872696Y-99161678D01*
X131806508Y-99126299D01*
X131734689Y-99104513D01*
X131660000Y-99097157D01*
X129960000Y-99097157D01*
X129946000Y-99098536D01*
X129946000Y-98422000D01*
X137062928Y-98422000D01*
X137066000Y-98673750D01*
X137224750Y-98832500D01*
X138049000Y-98832500D01*
X138049000Y-97945750D01*
X138303000Y-97945750D01*
X138303000Y-98832500D01*
X139127250Y-98832500D01*
X139286000Y-98673750D01*
X139289072Y-98422000D01*
X139276812Y-98297518D01*
X139240502Y-98177820D01*
X139181537Y-98067506D01*
X139102185Y-97970815D01*
X139005494Y-97891463D01*
X138895180Y-97832498D01*
X138775482Y-97796188D01*
X138651000Y-97783928D01*
X138461750Y-97787000D01*
X138303000Y-97945750D01*
X138049000Y-97945750D01*
X137890250Y-97787000D01*
X137701000Y-97783928D01*
X137576518Y-97796188D01*
X137456820Y-97832498D01*
X137346506Y-97891463D01*
X137249815Y-97970815D01*
X137170463Y-98067506D01*
X137111498Y-98177820D01*
X137075188Y-98297518D01*
X137062928Y-98422000D01*
X129946000Y-98422000D01*
X129946000Y-95139000D01*
X133493000Y-95139000D01*
X133493000Y-95361000D01*
X133536310Y-95578734D01*
X133621266Y-95783835D01*
X133744602Y-95968421D01*
X133901579Y-96125398D01*
X134086165Y-96248734D01*
X134291266Y-96333690D01*
X134509000Y-96377000D01*
X134731000Y-96377000D01*
X134948734Y-96333690D01*
X135153835Y-96248734D01*
X135338421Y-96125398D01*
X135495398Y-95968421D01*
X135618734Y-95783835D01*
X135703690Y-95578734D01*
X135747000Y-95361000D01*
X135747000Y-95139000D01*
X135703690Y-94921266D01*
X135618734Y-94716165D01*
X135495398Y-94531579D01*
X135338421Y-94374602D01*
X135153835Y-94251266D01*
X134948734Y-94166310D01*
X134731000Y-94123000D01*
X134509000Y-94123000D01*
X134291266Y-94166310D01*
X134086165Y-94251266D01*
X133901579Y-94374602D01*
X133744602Y-94531579D01*
X133621266Y-94716165D01*
X133536310Y-94921266D01*
X133493000Y-95139000D01*
X129946000Y-95139000D01*
X129946000Y-91299059D01*
X130649000Y-91299059D01*
X130649000Y-91580941D01*
X130703993Y-91857407D01*
X130811864Y-92117833D01*
X130968470Y-92352209D01*
X131167791Y-92551530D01*
X131402167Y-92708136D01*
X131662593Y-92816007D01*
X131939059Y-92871000D01*
X132220941Y-92871000D01*
X132497407Y-92816007D01*
X132757833Y-92708136D01*
X132992209Y-92551530D01*
X133191530Y-92352209D01*
X133348136Y-92117833D01*
X133456007Y-91857407D01*
X133511000Y-91580941D01*
X133511000Y-91299059D01*
X150969000Y-91299059D01*
X150969000Y-91580941D01*
X151023993Y-91857407D01*
X151131864Y-92117833D01*
X151288470Y-92352209D01*
X151487791Y-92551530D01*
X151722167Y-92708136D01*
X151982593Y-92816007D01*
X152259059Y-92871000D01*
X152540941Y-92871000D01*
X152817407Y-92816007D01*
X153077833Y-92708136D01*
X153312209Y-92551530D01*
X153511530Y-92352209D01*
X153668136Y-92117833D01*
X153776007Y-91857407D01*
X153831000Y-91580941D01*
X153831000Y-91299059D01*
X153776007Y-91022593D01*
X153668136Y-90762167D01*
X153511530Y-90527791D01*
X153312209Y-90328470D01*
X153077833Y-90171864D01*
X152817407Y-90063993D01*
X152540941Y-90009000D01*
X152259059Y-90009000D01*
X151982593Y-90063993D01*
X151722167Y-90171864D01*
X151487791Y-90328470D01*
X151288470Y-90527791D01*
X151131864Y-90762167D01*
X151023993Y-91022593D01*
X150969000Y-91299059D01*
X133511000Y-91299059D01*
X133456007Y-91022593D01*
X133348136Y-90762167D01*
X133191530Y-90527791D01*
X132992209Y-90328470D01*
X132757833Y-90171864D01*
X132497407Y-90063993D01*
X132220941Y-90009000D01*
X131939059Y-90009000D01*
X131662593Y-90063993D01*
X131402167Y-90171864D01*
X131167791Y-90328470D01*
X130968470Y-90527791D01*
X130811864Y-90762167D01*
X130703993Y-91022593D01*
X130649000Y-91299059D01*
X129946000Y-91299059D01*
X129946000Y-89306000D01*
X154534000Y-89306000D01*
X154534000Y-96558536D01*
G37*
%TD.AperFunction*%
D17*
X146506014Y-99562236D02*
X146335750Y-99565000D01*
X146177000Y-99723750D01*
X146177000Y-100610500D01*
X146197000Y-100610500D01*
X146197000Y-100864500D01*
X146177000Y-100864500D01*
X146177000Y-100884500D01*
X145923000Y-100884500D01*
X145923000Y-100864500D01*
X145098750Y-100864500D01*
X144940000Y-101023250D01*
X144936928Y-101275000D01*
X144949188Y-101399482D01*
X144985498Y-101519180D01*
X145044463Y-101629494D01*
X145123815Y-101726185D01*
X145220506Y-101805537D01*
X145284893Y-101839953D01*
X145248207Y-101908587D01*
X144848055Y-101508435D01*
X144832148Y-101489052D01*
X144754795Y-101425571D01*
X144666543Y-101378399D01*
X144603029Y-101359132D01*
X144616838Y-101343039D01*
X144678206Y-101234044D01*
X144717132Y-101115171D01*
X144729200Y-101008749D01*
X144570450Y-100849999D01*
X144729200Y-100691249D01*
X144717132Y-100584827D01*
X144678206Y-100465954D01*
X144616838Y-100356959D01*
X144535385Y-100262030D01*
X144456328Y-100200000D01*
X144936928Y-100200000D01*
X144940000Y-100451750D01*
X145098750Y-100610500D01*
X145923000Y-100610500D01*
X145923000Y-99723750D01*
X145764250Y-99565000D01*
X145575000Y-99561928D01*
X145450518Y-99574188D01*
X145330820Y-99610498D01*
X145220506Y-99669463D01*
X145123815Y-99748815D01*
X145044463Y-99845506D01*
X144985498Y-99955820D01*
X144949188Y-100075518D01*
X144936928Y-100200000D01*
X144456328Y-100200000D01*
X144436977Y-100184817D01*
X144325396Y-100128286D01*
X144204931Y-100094609D01*
X144080211Y-100085080D01*
X143973550Y-100087999D01*
X143814800Y-100246749D01*
X143814800Y-100840157D01*
X143804371Y-100840157D01*
X143805172Y-100672900D01*
X143792912Y-100548418D01*
X143756602Y-100428720D01*
X143697637Y-100318406D01*
X143618285Y-100221715D01*
X143521594Y-100142363D01*
X143499844Y-100130737D01*
X143499844Y-99745800D01*
X143492488Y-99671111D01*
X143470702Y-99599292D01*
X143435323Y-99533104D01*
X143432694Y-99529900D01*
X146473678Y-99529900D01*
X146506014Y-99562236D01*
%TA.AperFunction,Conductor*%
D19*
G36*
X146506014Y-99562236D02*
G01*
X146335750Y-99565000D01*
X146177000Y-99723750D01*
X146177000Y-100610500D01*
X146197000Y-100610500D01*
X146197000Y-100864500D01*
X146177000Y-100864500D01*
X146177000Y-100884500D01*
X145923000Y-100884500D01*
X145923000Y-100864500D01*
X145098750Y-100864500D01*
X144940000Y-101023250D01*
X144936928Y-101275000D01*
X144949188Y-101399482D01*
X144985498Y-101519180D01*
X145044463Y-101629494D01*
X145123815Y-101726185D01*
X145220506Y-101805537D01*
X145284893Y-101839953D01*
X145248207Y-101908587D01*
X144848055Y-101508435D01*
X144832148Y-101489052D01*
X144754795Y-101425571D01*
X144666543Y-101378399D01*
X144603029Y-101359132D01*
X144616838Y-101343039D01*
X144678206Y-101234044D01*
X144717132Y-101115171D01*
X144729200Y-101008749D01*
X144570450Y-100849999D01*
X144729200Y-100691249D01*
X144717132Y-100584827D01*
X144678206Y-100465954D01*
X144616838Y-100356959D01*
X144535385Y-100262030D01*
X144456328Y-100200000D01*
X144936928Y-100200000D01*
X144940000Y-100451750D01*
X145098750Y-100610500D01*
X145923000Y-100610500D01*
X145923000Y-99723750D01*
X145764250Y-99565000D01*
X145575000Y-99561928D01*
X145450518Y-99574188D01*
X145330820Y-99610498D01*
X145220506Y-99669463D01*
X145123815Y-99748815D01*
X145044463Y-99845506D01*
X144985498Y-99955820D01*
X144949188Y-100075518D01*
X144936928Y-100200000D01*
X144456328Y-100200000D01*
X144436977Y-100184817D01*
X144325396Y-100128286D01*
X144204931Y-100094609D01*
X144080211Y-100085080D01*
X143973550Y-100087999D01*
X143814800Y-100246749D01*
X143814800Y-100840157D01*
X143804371Y-100840157D01*
X143805172Y-100672900D01*
X143792912Y-100548418D01*
X143756602Y-100428720D01*
X143697637Y-100318406D01*
X143618285Y-100221715D01*
X143521594Y-100142363D01*
X143499844Y-100130737D01*
X143499844Y-99745800D01*
X143492488Y-99671111D01*
X143470702Y-99599292D01*
X143435323Y-99533104D01*
X143432694Y-99529900D01*
X146473678Y-99529900D01*
X146506014Y-99562236D01*
G37*
%TD.AperFunction*%
D17*
X142367000Y-101473000D02*
X142387000Y-101473000D01*
X142387000Y-101727000D01*
X142367000Y-101727000D01*
X142367000Y-101747000D01*
X142113000Y-101747000D01*
X142113000Y-101727000D01*
X142093000Y-101727000D01*
X142093000Y-101473000D01*
X142113000Y-101473000D01*
X142113000Y-101453000D01*
X142367000Y-101453000D01*
X142367000Y-101473000D01*
%TA.AperFunction,Conductor*%
D19*
G36*
X142367000Y-101473000D02*
G01*
X142387000Y-101473000D01*
X142387000Y-101727000D01*
X142367000Y-101727000D01*
X142367000Y-101747000D01*
X142113000Y-101747000D01*
X142113000Y-101727000D01*
X142093000Y-101727000D01*
X142093000Y-101473000D01*
X142113000Y-101473000D01*
X142113000Y-101453000D01*
X142367000Y-101453000D01*
X142367000Y-101473000D01*
G37*
%TD.AperFunction*%
%TD*%
M02*
