M48
; DRILL file {KiCad (5.1.10)-1} date 05/28/21 12:24:00
; FORMAT={-:-/ absolute / inch / decimal}
; #@! TF.CreationDate,2021-05-28T12:24:00-05:00
; #@! TF.GenerationSoftware,Kicad,Pcbnew,(5.1.10)-1
FMAT,2
INCH
T1C0.0100
T2C0.0394
T3C0.0827
%
G90
G05
T1
X5.14Y-3.7
X5.14Y-3.88
X5.14Y-4.3
X5.3Y-3.54
X5.3Y-4.46
X5.35Y-3.99
X5.37Y-3.9
X5.49Y-4.17
X5.5Y-3.88
X5.5Y-4.136
X5.51Y-4.07
X5.54Y-4.29
X5.58Y-3.98
X5.58Y-4.02
X5.59Y-3.85
X5.6Y-4.29
X5.62Y-3.98
X5.62Y-4.02
X5.64Y-4.136
X5.68Y-4.29
X5.69Y-3.93
X5.7Y-4.07
X5.72Y-3.85
X5.75Y-4.18
X5.79Y-4.07
X5.82Y-3.88
X5.86Y-3.99
X5.9Y-3.54
X5.9Y-4.46
X5.96Y-4.09
X5.97Y-3.88
X6.06Y-3.7
X6.06Y-4.3
T2
X5.15Y-3.95
X5.15Y-4.05
X6.05Y-3.85
X6.05Y-3.95
X6.05Y-4.05
X6.05Y-4.15
T3
X5.2Y-3.6
X5.2Y-4.4
X6.0Y-3.6
X6.0Y-4.4
T0
M30
