%TF.GenerationSoftware,KiCad,Pcbnew,(5.1.10)-1*%
%TF.CreationDate,2021-05-28T12:23:57-05:00*%
%TF.ProjectId,ldo-power-board,6c646f2d-706f-4776-9572-2d626f617264,v01*%
%TF.SameCoordinates,Original*%
%TF.FileFunction,Paste,Top*%
%TF.FilePolarity,Positive*%
%FSLAX46Y46*%
G04 Gerber Fmt 4.6, Leading zero omitted, Abs format (unit mm)*
G04 Created by KiCad (PCBNEW (5.1.10)-1) date 2021-05-28 12:23:57*
%MOMM*%
%LPD*%
G01*
G04 APERTURE LIST*
%ADD10R,1.854200X1.854200*%
%ADD11R,0.254000X0.812800*%
%ADD12R,0.812800X0.254000*%
G04 APERTURE END LIST*
D10*
%TO.C,U1*%
X142240000Y-101600000D03*
D11*
X141489999Y-100152200D03*
X141990000Y-100152200D03*
X142490000Y-100152200D03*
X142990001Y-100152200D03*
D12*
X143687800Y-100849999D03*
X143687800Y-101350000D03*
X143687800Y-101850000D03*
X143687800Y-102350001D03*
D11*
X142990001Y-103047800D03*
X142490000Y-103047800D03*
X141990000Y-103047800D03*
X141489999Y-103047800D03*
D12*
X140792200Y-102350001D03*
X140792200Y-101850000D03*
X140792200Y-101350000D03*
X140792200Y-100849999D03*
%TD*%
%TO.C,C6*%
G36*
G01*
X146287500Y-101275000D02*
X145812500Y-101275000D01*
G75*
G02*
X145575000Y-101037500I0J237500D01*
G01*
X145575000Y-100437500D01*
G75*
G02*
X145812500Y-100200000I237500J0D01*
G01*
X146287500Y-100200000D01*
G75*
G02*
X146525000Y-100437500I0J-237500D01*
G01*
X146525000Y-101037500D01*
G75*
G02*
X146287500Y-101275000I-237500J0D01*
G01*
G37*
G36*
G01*
X146287500Y-103000000D02*
X145812500Y-103000000D01*
G75*
G02*
X145575000Y-102762500I0J237500D01*
G01*
X145575000Y-102162500D01*
G75*
G02*
X145812500Y-101925000I237500J0D01*
G01*
X146287500Y-101925000D01*
G75*
G02*
X146525000Y-102162500I0J-237500D01*
G01*
X146525000Y-102762500D01*
G75*
G02*
X146287500Y-103000000I-237500J0D01*
G01*
G37*
%TD*%
%TO.C,C5*%
G36*
G01*
X137938500Y-103703000D02*
X138413500Y-103703000D01*
G75*
G02*
X138651000Y-103940500I0J-237500D01*
G01*
X138651000Y-104540500D01*
G75*
G02*
X138413500Y-104778000I-237500J0D01*
G01*
X137938500Y-104778000D01*
G75*
G02*
X137701000Y-104540500I0J237500D01*
G01*
X137701000Y-103940500D01*
G75*
G02*
X137938500Y-103703000I237500J0D01*
G01*
G37*
G36*
G01*
X137938500Y-101978000D02*
X138413500Y-101978000D01*
G75*
G02*
X138651000Y-102215500I0J-237500D01*
G01*
X138651000Y-102815500D01*
G75*
G02*
X138413500Y-103053000I-237500J0D01*
G01*
X137938500Y-103053000D01*
G75*
G02*
X137701000Y-102815500I0J237500D01*
G01*
X137701000Y-102215500D01*
G75*
G02*
X137938500Y-101978000I237500J0D01*
G01*
G37*
%TD*%
%TO.C,C4*%
G36*
G01*
X138413500Y-99497000D02*
X137938500Y-99497000D01*
G75*
G02*
X137701000Y-99259500I0J237500D01*
G01*
X137701000Y-98659500D01*
G75*
G02*
X137938500Y-98422000I237500J0D01*
G01*
X138413500Y-98422000D01*
G75*
G02*
X138651000Y-98659500I0J-237500D01*
G01*
X138651000Y-99259500D01*
G75*
G02*
X138413500Y-99497000I-237500J0D01*
G01*
G37*
G36*
G01*
X138413500Y-101222000D02*
X137938500Y-101222000D01*
G75*
G02*
X137701000Y-100984500I0J237500D01*
G01*
X137701000Y-100384500D01*
G75*
G02*
X137938500Y-100147000I237500J0D01*
G01*
X138413500Y-100147000D01*
G75*
G02*
X138651000Y-100384500I0J-237500D01*
G01*
X138651000Y-100984500D01*
G75*
G02*
X138413500Y-101222000I-237500J0D01*
G01*
G37*
%TD*%
%TO.C,C3*%
G36*
G01*
X140478500Y-106243000D02*
X140953500Y-106243000D01*
G75*
G02*
X141191000Y-106480500I0J-237500D01*
G01*
X141191000Y-107080500D01*
G75*
G02*
X140953500Y-107318000I-237500J0D01*
G01*
X140478500Y-107318000D01*
G75*
G02*
X140241000Y-107080500I0J237500D01*
G01*
X140241000Y-106480500D01*
G75*
G02*
X140478500Y-106243000I237500J0D01*
G01*
G37*
G36*
G01*
X140478500Y-104518000D02*
X140953500Y-104518000D01*
G75*
G02*
X141191000Y-104755500I0J-237500D01*
G01*
X141191000Y-105355500D01*
G75*
G02*
X140953500Y-105593000I-237500J0D01*
G01*
X140478500Y-105593000D01*
G75*
G02*
X140241000Y-105355500I0J237500D01*
G01*
X140241000Y-104755500D01*
G75*
G02*
X140478500Y-104518000I237500J0D01*
G01*
G37*
%TD*%
%TO.C,C2*%
G36*
G01*
X142002500Y-106243000D02*
X142477500Y-106243000D01*
G75*
G02*
X142715000Y-106480500I0J-237500D01*
G01*
X142715000Y-107080500D01*
G75*
G02*
X142477500Y-107318000I-237500J0D01*
G01*
X142002500Y-107318000D01*
G75*
G02*
X141765000Y-107080500I0J237500D01*
G01*
X141765000Y-106480500D01*
G75*
G02*
X142002500Y-106243000I237500J0D01*
G01*
G37*
G36*
G01*
X142002500Y-104518000D02*
X142477500Y-104518000D01*
G75*
G02*
X142715000Y-104755500I0J-237500D01*
G01*
X142715000Y-105355500D01*
G75*
G02*
X142477500Y-105593000I-237500J0D01*
G01*
X142002500Y-105593000D01*
G75*
G02*
X141765000Y-105355500I0J237500D01*
G01*
X141765000Y-104755500D01*
G75*
G02*
X142002500Y-104518000I237500J0D01*
G01*
G37*
%TD*%
%TO.C,C1*%
G36*
G01*
X144034500Y-106243000D02*
X144509500Y-106243000D01*
G75*
G02*
X144747000Y-106480500I0J-237500D01*
G01*
X144747000Y-107080500D01*
G75*
G02*
X144509500Y-107318000I-237500J0D01*
G01*
X144034500Y-107318000D01*
G75*
G02*
X143797000Y-107080500I0J237500D01*
G01*
X143797000Y-106480500D01*
G75*
G02*
X144034500Y-106243000I237500J0D01*
G01*
G37*
G36*
G01*
X144034500Y-104518000D02*
X144509500Y-104518000D01*
G75*
G02*
X144747000Y-104755500I0J-237500D01*
G01*
X144747000Y-105355500D01*
G75*
G02*
X144509500Y-105593000I-237500J0D01*
G01*
X144034500Y-105593000D01*
G75*
G02*
X143797000Y-105355500I0J237500D01*
G01*
X143797000Y-104755500D01*
G75*
G02*
X144034500Y-104518000I237500J0D01*
G01*
G37*
%TD*%
M02*
